<svg xmlns="http://www.w3.org/2000/svg" version="1.1" xmlns:xlink="http://www.w3.org/1999/xlink" xmlns:svgjs="http://svgjs.dev/svgjs" width="100%" height="100%" viewBox="0 0 1000 600"><rect width="1000" height="600" x="0" y="0" fill="#16191c"/><g><rect width="333.3333333333333" height="333.3333333333333" y="179.89687831278027" fill="#16191c" transform="matrix(0.7927718435656184,0,0,0.7927718435656186,-9.706561508579973,25.254196758327666)" x="216.75848388671875"/><path d="M232.7434608367185 421.563556301121Q213.71055714746024 421.563556301121 199.55858434699456 412.81060202568847Q185.43387931685737 404.08491552058445 177.66256477324904 387.88785994548493Q169.91851799996917 371.69080437038554 169.91851799996917 350.09473027025297L169.91851799996917 350.09473027025297Q169.91851799996917 328.6895305624196 177.88070693587665 312.49247498732007Q185.81562810145567 296.2954194122206 199.96760090192132 287.46066182580273Q214.09230593205854 278.6259042393849 231.95269549719345 278.6259042393849L231.95269549719345 278.6259042393849Q247.65893120638077 278.6259042393849 261.81090400684644 284.5157426303301L261.81090400684644 284.5157426303301L259.84762454319804 301.2036180713417Q247.27718242178247 294.9320308957981 235.49750563989198 294.9320308957981L235.49750563989198 294.9320308957981Q220.963784054828 294.9320308957981 210.65656687067383 302.1852578031659Q200.34934968651964 309.4657524808621 195.05940224280027 322.0089268319492Q189.74218702875248 334.5793689533648 189.74218702875248 350.09473027025297L189.74218702875248 350.09473027025297Q189.74218702875248 365.61009158714114 195.05940224280027 378.1805337085567Q200.34934968651964 390.72370805964374 210.65656687067383 398.00420273734005Q220.963784054828 405.2574296447078 235.68838003219113 405.2574296447078L235.68838003219113 405.2574296447078Q248.44969654590585 405.2574296447078 259.84762454319804 399.3675912537625L259.84762454319804 399.3675912537625L261.81090400684644 416.05546669477405Q249.2404618854309 421.563556301121 232.7434608367185 421.563556301121L232.7434608367185 421.563556301121ZM311.65638816725345 420.772790961596Q298.70419726123964 420.772790961596 289.2968164979243 414.20125831243945Q279.8621679642805 407.6297256632829 274.84489822384563 396.2317976659907Q269.85489625373924 384.8338696686985 269.85489625373924 370.70916463856133L269.85489625373924 370.70916463856133Q269.85489625373924 356.58445960842414 274.84489822384563 345.18653161113195Q279.8621679642805 333.78860361383965 289.2968164979243 327.2170709646832Q298.70419726123964 320.64553831552666 311.65638816725345 320.64553831552666L311.65638816725345 320.64553831552666Q324.4177046809682 320.64553831552666 333.852353214612 327.2170709646832Q343.2870017482557 333.78860361383965 348.1952004073768 345.18653161113195Q353.1033990664978 356.58445960842414 353.1033990664978 370.70916463856133L353.1033990664978 370.70916463856133Q353.1033990664978 384.8338696686985 348.1952004073768 396.2317976659907Q343.2870017482557 407.6297256632829 333.852353214612 414.20125831243945Q324.4177046809682 420.772790961596 311.65638816725345 420.772790961596L311.65638816725345 420.772790961596ZM311.65638816725345 405.6664461996345Q323.05431616454564 405.6664461996345 329.3259033400892 396.4226720582899Q335.6247582859612 387.2061656872737 335.6247582859612 370.70916463856133L335.6247582859612 370.70916463856133Q335.6247582859612 354.21216358984896 329.3259033400892 345.07746052981815Q323.05431616454564 335.9700252401158 311.65638816725345 335.9700252401158L311.65638816725345 335.9700252401158Q299.87671138536297 335.9700252401158 293.60512420981945 345.07746052981815Q287.3335370342759 354.21216358984896 287.3335370342759 370.70916463856133L287.3335370342759 370.70916463856133Q287.3335370342759 387.3970400795729 293.60512420981945 396.5317431396037Q299.87671138536297 405.6664461996345 311.65638816725345 405.6664461996345L311.65638816725345 405.6664461996345ZM426.5082367906858 271.56355172431626L443.6051287866241 271.56355172431626L443.6051287866241 418.8095114979475L428.47151625433423 418.8095114979475L427.10812773791173 409.97475391152966Q422.58167786338896 415.26470135524903 416.31009068784545 418.01874615842246Q410.0385035123019 420.772790961596 402.5671344423065 420.772790961596L402.5671344423065 420.772790961596Q391.3873486076419 420.772790961596 382.55259102122403 414.20125831243945Q373.71783343480615 407.6297256632829 368.59149261305754 396.2317976659907Q363.49241956163735 384.8338696686985 363.49241956163735 370.9000390308605L363.49241956163735 370.9000390308605Q363.49241956163735 357.34795717762074 368.31881490977304 345.8682258693432Q373.1179424875803 334.3884945610656 382.06177115531193 327.5170164382962Q390.9783320527152 320.64553831552666 402.5671344423065 320.64553831552666L402.5671344423065 320.64553831552666Q416.90998163507135 320.64553831552666 426.5082367906858 330.652810026068L426.5082367906858 330.652810026068L426.5082367906858 271.56355172431626ZM404.3395395136557 405.6664461996345Q415.13757656372206 405.6664461996345 421.60003813156476 397.1043663165011Q428.08976746973593 388.56955420369616 428.08976746973593 370.9000390308605L428.08976746973593 370.9000390308605Q428.08976746973593 353.8304148052506 421.60003813156476 344.886586137519Q415.13757656372206 335.9700252401158 404.3395395136557 335.9700252401158L404.3395395136557 335.9700252401158Q397.6589357831855 335.9700252401158 392.3689883394661 340.46920734431Q387.0517731254183 344.9956572188328 384.0250506189604 352.9305783844118Q380.9710603421739 360.8927673203193 380.9710603421739 370.9000390308605L380.9710603421739 370.9000390308605Q380.9710603421739 380.3346875645043 384.0250506189604 388.2696087300833Q387.0517731254183 396.2317976659907 392.4507916504515 400.94912193281266Q397.84981017548466 405.6664461996345 404.3395395136557 405.6664461996345L404.3395395136557 405.6664461996345ZM505.2575574992501 420.772790961596Q490.7238359141861 420.772790961596 480.4166187300319 414.01038392014027Q470.10940154587774 407.22070910835623 464.90125741314375 395.63190671876487Q459.69311328040976 384.0703720995019 459.69311328040976 369.9183992990363L459.69311328040976 369.9183992990363Q459.69311328040976 356.36631744579654 464.51950862854545 345.07746052981815Q469.31863620635266 333.78860361383965 478.4533392663835 327.2170709646832Q487.5880423264143 320.64553831552666 500.13121667750147 320.64553831552666L500.13121667750147 320.64553831552666Q516.2464689416155 320.64553831552666 526.3628117334706 331.443575365593Q536.4518867549972 342.24161241565935 536.4518867549972 361.27451610491755L536.4518867549972 361.27451610491755Q536.4518867549972 364.62845185531694 535.6883891858006 370.51829024626215L535.6883891858006 370.51829024626215L477.17175406094634 370.51829024626215Q477.7716450081723 387.58791447187207 485.7065661737513 396.4226720582899Q493.6687551096587 405.2574296447078 506.43007162337346 405.2574296447078L506.43007162337346 405.2574296447078Q512.5107844066179 405.2574296447078 519.2731914480735 403.78497004697147Q526.0628662598576 402.3125104492351 531.1619393112778 399.5584656460617L531.1619393112778 399.5584656460617L532.743469990328 414.8829525706507Q521.9454329402616 420.772790961596 505.2575574992501 420.772790961596L505.2575574992501 420.772790961596ZM477.9625194004715 358.54773907207255L519.000513744789 358.54773907207255Q519.000513744789 348.7313417538304 514.1741183966533 342.5415578892722Q509.3749908188461 336.351774024714 500.34935884012907 336.351774024714L500.34935884012907 336.351774024714Q491.51460125371113 336.351774024714 485.7065661737513 341.859863631061Q479.92579886411977 347.3406854670794 477.9625194004715 358.54773907207255L477.9625194004715 358.54773907207255ZM551.7763736795862 418.8095114979475L551.7763736795862 322.60881777917507L565.7102043174243 322.60881777917507L567.8643581733718 338.6968022729608Q574.354087511543 329.2894215096454 580.1348548211744 324.95384602742183Q585.9428899011343 320.64553831552666 592.4053514689771 320.64553831552666L592.4053514689771 320.64553831552666Q594.9685218798513 320.64553831552666 596.9318013434997 321.2454292627526L596.9318013434997 321.2454292627526L595.1593962721505 340.6600817366092Q592.6234936316047 340.08745855971176 589.2695578812052 340.08745855971176L589.2695578812052 340.08745855971176Q582.8070963133625 340.08745855971176 577.1081323147165 343.33232322879735Q571.4091683160703 346.5499201275544 568.8459979051961 350.885495609778L568.8459979051961 350.885495609778L568.8459979051961 418.8095114979475L551.7763736795862 418.8095114979475Z " fill="#ffffff" transform="matrix(0.7927718435656184,0,0,0.7927718435656186,-9.706561508579973,25.254196758327666)"/><path d="M633.4251555688338 419.4508683849159L633.4251555688338 271.56355238696295L652.6446381042822 271.56355238696295L652.6446381042822 332.6257556789749L720.6904090961973 332.6257556789749L720.6904090961973 271.56355238696295L739.9098916316457 271.56355238696295L739.9098916316457 419.4508683849159L720.6904090961973 419.4508683849159L720.6904090961973 351.43444011442887L652.6446381042822 351.43444011442887L652.6446381042822 419.4508683849159L633.4251555688338 419.4508683849159ZM801.588292073649 421.5635443277439Q787.6504993952706 421.5635443277439 777.5272605025534 414.491948463556Q767.3746788884084 407.42035259936824 761.975618145626 395.15509504239515Q756.6059001242716 382.88983748542205 756.6059001242716 367.6903077856324L756.6059001242716 367.6903077856324Q756.6059001242716 352.49077808584286 761.975618145626 340.22552052886977Q767.3746788884084 327.96026297189667 777.5272605025534 320.8886671077088Q787.6504993952706 313.817071243521 801.588292073649 313.817071243521L801.588292073649 313.817071243521Q815.3206857020305 313.817071243521 825.4732673161757 320.8886671077088Q835.6258489303207 327.96026297189667 840.9075387873904 340.22552052886977Q846.1892286444604 352.49077808584286 846.1892286444604 367.6903077856324L846.1892286444604 367.6903077856324Q846.1892286444604 382.88983748542205 840.9075387873904 395.15509504239515Q835.6258489303207 407.42035259936824 825.4732673161757 414.491948463556Q815.3206857020305 421.5635443277439 801.588292073649 421.5635443277439L801.588292073649 421.5635443277439ZM801.588292073649 405.30767665654025Q813.8535496306222 405.30767665654025 820.6023755591002 395.3604940923923Q827.3805442090063 385.4426542496724 827.3805442090063 367.6903077856324L827.3805442090063 367.6903077856324Q827.3805442090063 349.9379613215924 820.6023755591002 340.10814964315705Q813.8535496306222 330.30768068614987 801.588292073649 330.30768068614987L801.588292073649 330.30768068614987Q788.9122364166817 330.30768068614987 782.1634104882037 340.10814964315705Q775.4145845597257 349.9379613215924 775.4145845597257 367.6903077856324L775.4145845597257 367.6903077856324Q775.4145845597257 385.6480532996695 782.1634104882037 395.4778649781049Q788.9122364166817 405.30767665654025 801.588292073649 405.30767665654025L801.588292073649 405.30767665654025ZM918.8418069005975 315.9297471863489L937.2396932360571 315.9297471863489L937.2396932360571 419.4508683849159L921.600022714845 419.4508683849159L920.3382856934338 406.77481272794853Q916.1129338077781 413.7583804278519 908.9239670578777 417.6609623777979Q901.7350003079771 421.5635443277439 893.0788974866684 421.5635443277439L893.0788974866684 421.5635443277439Q876.8230298154649 421.5635443277439 868.9004950298602 410.67739467789454Q860.9779602442554 399.7912450280452 860.9779602442554 379.51542452118304L860.9779602442554 379.51542452118304L860.9779602442554 315.9297471863489L879.346503858287 315.9297471863489L879.346503858287 377.197349528358Q879.346503858287 391.1351422067364 883.4544848582302 398.00133902092716Q887.5918085796015 404.8675358351178 897.3042493723242 404.8675358351178L897.3042493723242 404.8675358351178Q904.0530753008022 404.8675358351178 909.5695069292972 401.0823247708845Q915.0565958363641 397.267770985223 918.8418069005975 390.518945056745L918.8418069005975 390.518945056745L918.8418069005975 315.9297471863489ZM990.0565918067546 421.5635443277439Q971.8934472427202 421.5635443277439 958.5718517143332 413.1128405564323L958.5718517143332 413.1128405564323L960.8899267071583 394.50955517097543Q974.4169212855425 405.07293488511493 988.7948547853434 405.07293488511493L988.7948547853434 405.07293488511493Q996.3946196352383 405.07293488511493 1000.7079996851785 401.90392097087306Q1005.050722456547 398.7349070566313 1005.050722456547 392.6316209995729L1005.050722456547 392.6316209995729Q1005.050722456547 387.96612829249455 1003.0554173994317 385.0025134282499Q1001.0307696208883 382.0682412854334 996.3946196352383 379.3100254711859Q991.72912692816 376.5518096569383 982.0166861354373 372.1210587212854L982.0166861354373 372.1210587212854Q970.602367499881 366.83936886421566 965.3206776428112 360.09054293573763Q960.0389877857415 353.3123742858314 960.0389877857415 342.5435955216948L960.0389877857415 342.5435955216948Q960.0389877857415 329.8675398647274 968.9298323784756 321.85697691483824Q977.7913342497816 313.817071243521 992.785464899574 313.817071243521L992.785464899574 313.817071243521Q1008.0143373207918 313.817071243521 1019.4286559563482 320.5658971719989L1019.4286559563482 320.5658971719989L1017.0812382420947 337.7020464860475Q1011.3887502850307 333.887492700386 1006.3124594779581 332.0975866932679Q1001.2361686708855 330.30768068614987 994.2819436924103 330.30768068614987L994.2819436924103 330.30768068614987Q986.8875778925128 330.30768068614987 982.6622260068568 333.47669460039174Q978.4368741212011 336.6457085146336 978.4368741212011 342.33819647169764L978.4368741212011 342.33819647169764Q978.4368741212011 348.0306844287617 982.13405702115 350.9942992930064Q985.8312399210988 353.957914157251 996.6000186852355 358.8288059143265L996.6000186852355 358.8288059143265Q1011.5941493350279 365.5776318428045 1017.7267781135145 372.44382865699515Q1023.8594068920011 379.3100254711859 1023.8594068920011 390.518945056745L1023.8594068920011 390.518945056745Q1023.8594068920011 405.07293488511493 1014.7631632492698 413.3182396064294Q1005.6962623279667 421.5635443277439 990.0565918067546 421.5635443277439L990.0565918067546 421.5635443277439ZM1082.3687934197626 421.5635443277439Q1066.7291228985505 421.5635443277439 1055.637574198704 414.2865494135589Q1044.5460254988575 406.98021177794567 1038.9709084275062 394.50955517097543Q1033.3664486347266 382.0682412854334 1033.3664486347266 366.83936886421566L1033.3664486347266 366.83936886421566Q1033.3664486347266 352.25603631441743 1038.5307676060836 340.10814964315705Q1043.724429298869 327.96026297189667 1053.524898255876 320.8886671077088Q1063.3547099343116 313.817071243521 1076.8817045126957 313.817071243521L1076.8817045126957 313.817071243521Q1094.193910155313 313.817071243521 1105.0800598051624 325.4367889290744Q1115.9662094550117 337.0565066146279 1115.9662094550117 357.5377261714872L1115.9662094550117 357.5377261714872Q1115.9662094550117 361.1468809071515 1115.1152705335949 367.48490873563526L1115.1152705335949 367.48490873563526L1052.1751330701804 367.48490873563526Q1052.7913302201719 385.85345234966667 1061.3594048771963 395.3604940923923Q1069.8981368127922 404.8675358351178 1083.6305304411737 404.8675358351178L1083.6305304411737 404.8675358351178Q1090.2033000410827 404.8675358351178 1097.4802949552677 403.2830288779969Q1104.7572898694525 401.6985219208759 1110.2737214979477 398.7349070566313L1110.2737214979477 398.7349070566313L1111.946256619353 415.22551649926015Q1100.3265389337996 421.5635443277439 1082.3687934197626 421.5635443277439L1082.3687934197626 421.5635443277439ZM1052.996729270169 354.60345402867074L1097.1575250195579 354.60345402867074Q1097.1575250195579 344.04007431453124 1091.9932060482008 337.37927655033764Q1086.7995443554155 330.71847878614415 1077.0871035626928 330.71847878614415L1077.0871035626928 330.71847878614415Q1067.580061819967 330.71847878614415 1061.3594048771963 336.6457085146336Q1055.109405212997 342.5435955216948 1052.996729270169 354.60345402867074L1052.996729270169 354.60345402867074Z " fill="#ffffff" transform="matrix(0.7927718435656184,0,0,0.7927718435656186,-9.706561508579973,25.254196758327666)"/></g></svg>